<?xml version="1.0"?>
<svg xmlns="http://www.w3.org/2000/svg" xmlns:xlink="http://www.w3.org/1999/xlink" version="1.1" id="Capa_1" x="0px" y="0px" viewBox="0 0 247.589 247.589" style="enable-background:new 0 0 247.589 247.589;" xml:space="preserve" width="512px" height="512px" class=""><g><g>
	<path d="M177.958,15.938c-38.305,41.122,26.889,51.842-13.2,88.266   C210.214,67.636,149.212,56.492,177.958,15.938z" data-original="#030104" class="active-path" data-old_color="#bf0731" fill="#bf0731"/>
	<path d="M196.815,115.059c19.212,47.851,10.287,81.879-10.795,102.437l16.553,20.479   c1.949,2.413,1.574,5.971-0.844,7.924l-0.543,0.441c-2.418,1.953-5.977,1.572-7.924-0.84l-16.468-20.37   c-30.459,21.365-76.892,21.238-107.001,0.223l-16.281,20.146c-1.948,2.412-5.506,2.793-7.924,0.84l-0.543-0.441   c-2.418-1.953-2.791-5.511-0.844-7.924l16.378-20.256c-21.185-20.695-29.38-55.008-7.363-102.659H196.815L196.815,115.059z" data-original="#030104" class="active-path" data-old_color="#bf0731" fill="#bf0731"/>
	<path d="M90.712,15.938C52.406,57.06,117.601,67.78,77.511,104.204   C122.968,67.636,61.965,56.492,90.712,15.938z" data-original="#030104" class="active-path" data-old_color="#bf0731" fill="#bf0731"/>
	<path d="M120.303,0c-49.328,48.543,34.626,61.202-17,104.197C161.84,61.027,83.282,47.875,120.303,0z" data-original="#030104" class="active-path" data-old_color="#bf0731" fill="#bf0731"/>
	<path d="M152.462,0c-49.328,48.544,34.627,61.202-16.998,104.197C193.999,61.027,115.442,47.875,152.462,0z" data-original="#030104" class="active-path" data-old_color="#bf0731" fill="#bf0731"/>
</g></g> </svg>
